<?xml version="1.0" encoding="UTF-8"?>
<svg xmlns="http://www.w3.org/2000/svg" xmlns:xlink="http://www.w3.org/1999/xlink" viewBox="0 0 40 40" version="1.1" width="40px" height="40px">
<g id="surface1">
<path style=" fill:#98CCFD;" d="M 2.5 2.5 L 37.5 2.5 L 37.5 37.5 L 2.5 37.5 Z "/>
<path style=" fill:#4788C7;" d="M 37 3 L 37 37 L 3 37 L 3 3 L 37 3 M 38 2 L 2 2 L 2 38 L 38 38 Z "/>
<path style=" fill:#FFFFFF;" d="M 8 16 L 13 16 L 13 32 L 8 32 Z "/>
<path style=" fill:#FFFFFF;" d="M 10.5 14 C 9 14 8 12.867188 8 11.46875 C 8 10.066406 9 9 10.5 9 C 12 9 12.9375 10.066406 13 11.46875 C 13 12.867188 12.0625 14 10.5 14 Z "/>
<path style=" fill:#FFFFFF;" d="M 25.949219 16 C 22.679688 16 21 18.15625 21 18.15625 L 21 16 L 16 16 L 16 32 L 21 32 L 21 23 C 21 21.34375 22.34375 20 24 20 C 25.65625 20 27 21.34375 27 23 L 27 32 L 32 32 L 32 22.957031 C 32 18.296875 29.285156 16 25.949219 16 Z "/>
</g>
</svg>
